<?xml version="1.0" encoding="utf-8"?>
<!-- Generator: Adobe Illustrator 24.2.3, SVG Export Plug-In . SVG Version: 6.00 Build 0)  -->
<svg version="1.1" id="Layer_1" xmlns="http://www.w3.org/2000/svg" xmlns:xlink="http://www.w3.org/1999/xlink" x="0px" y="0px"
	 viewBox="0 0 207.67 201.06" style="enable-background:new 0 0 207.67 201.06;" xml:space="preserve">
<style type="text/css">
	.st0{fill:#3D405B;}
	.st1{fill:none;stroke:#3D405B;stroke-width:15;stroke-miterlimit:10;}
</style>
<g>
	<path class="st0" d="M110.11,80.87c-1.23-1.44-2.82-2.61-4.77-3.51s-4.31-1.35-7.07-1.35c-3.42,0-6.26,0.69-8.51,2.07
		s-4.16,3.03-5.72,4.95c-1.02-2.16-2.57-3.87-4.64-5.13c-2.07-1.26-4.85-1.89-8.33-1.89c-3.24,0-6.03,0.75-8.37,2.25
		s-4.17,3.15-5.49,4.95h-0.36c0.12-0.84,0.24-1.85,0.36-3.02s0.21-2.21,0.27-3.11H38.06c-0.12,1.44-0.31,3.06-0.58,4.86
		s-0.53,3.27-0.77,4.41l-6.66,38.08h20.16l4.41-25.02c0.48-2.52,1.2-4.35,2.16-5.49s2.01-1.71,3.15-1.71c1.2,0,2.11,0.42,2.75,1.26
		c0.63,0.84,0.95,1.95,0.95,3.33c0,0.3-0.02,0.71-0.05,1.22s-0.11,1.01-0.22,1.49l-4.41,24.93H79.1l4.41-25.02
		c0.42-2.22,1.09-3.97,2.03-5.27c0.93-1.29,2.05-1.94,3.38-1.94c2.46,0,3.69,1.38,3.69,4.14c0,0.36-0.02,0.83-0.05,1.4
		c-0.03,0.57-0.11,1.1-0.23,1.57l-4.41,25.11h20.25l5.04-28.71c0.12-0.72,0.22-1.45,0.32-2.21c0.09-0.75,0.14-1.54,0.14-2.39
		c0-1.8-0.29-3.6-0.86-5.4C112.24,83.93,111.34,82.31,110.11,80.87z"/>
	<path class="st0" d="M156.78,77.09l-11.07,25.92h-0.36l-2.88-25.92h-22.32l11.34,46.72l-0.54,0.99c-0.78,1.44-1.79,2.62-3.02,3.56
		c-1.23,0.93-2.96,1.4-5.18,1.4c-0.9,0-1.74-0.11-2.52-0.32s-1.53-0.46-2.25-0.76l-3.42,15.93c1.14,0.36,2.61,0.69,4.41,0.99
		c1.8,0.3,3.78,0.45,5.94,0.45c3.48,0,6.5-0.42,9.05-1.26s4.82-2.06,6.8-3.65s3.76-3.54,5.36-5.85c1.59-2.31,3.2-4.97,4.82-7.97
		l27.45-50.23H156.78z"/>
</g>
<circle class="st1" cx="103.22" cy="100.76" r="92.37"/>
</svg>
